<?xml version="1.0" encoding="UTF-8"?>
<svg id="Calque_1" xmlns="http://www.w3.org/2000/svg" version="1.1" viewBox="0 0 317.6 146.3">
  <!-- Generator: Adobe Illustrator 29.1.0, SVG Export Plug-In . SVG Version: 2.1.0 Build 142)  -->
  <defs>
    <style>
      .st0 {
        fill: #0069b4;
      }

      .st1 {
        fill: #1d1d1b;
      }

      .st2 {
        fill: #fff;
      }

      .st3 {
        fill: #e61e42;
      }
    </style>
  </defs>
  <g>
    <path class="st1" d="M141.5,47.1c2.1,0,3.9.3,5.3.9,1.5.6,2.7,1.4,3.6,2.4.9,1,1.6,2.1,2,3.4.4,1.3.6,2.6.6,4s-.2,2.6-.6,3.9c-.4,1.3-1.1,2.4-2,3.4-.9,1-2.1,1.8-3.6,2.4-1.5.6-3.3.9-5.3.9h-7.7v11.9h-7.4v-33.2h15.1ZM139.5,62.8c.8,0,1.7,0,2.4-.2.8-.1,1.5-.4,2.1-.7.6-.4,1.1-.9,1.4-1.5.4-.7.5-1.5.5-2.6s-.2-1.9-.5-2.6c-.4-.7-.8-1.2-1.4-1.5-.6-.4-1.3-.6-2.1-.7-.8-.1-1.6-.2-2.4-.2h-5.7v9.9h5.7Z"/>
    <path class="st1" d="M236.6,47.1c1.5,0,2.9.2,4.1.7,1.2.5,2.2,1.1,3.1,2,.9.8,1.5,1.8,2,2.9.5,1.1.7,2.3.7,3.6,0,2-.4,3.6-1.2,5.1-.8,1.4-2.2,2.5-4.1,3.3h0c.9.3,1.7.7,2.3,1.2.6.5,1.1,1.1,1.5,1.8.4.7.6,1.5.8,2.3.2.8.3,1.7.4,2.5,0,.5,0,1.1,0,1.9,0,.7,0,1.4.2,2.2,0,.7.2,1.4.4,2.1.2.7.4,1.2.8,1.7h-7.4c-.4-1.1-.7-2.3-.8-3.8,0-1.5-.2-2.9-.4-4.2-.3-1.7-.8-3-1.6-3.8-.8-.8-2.1-1.2-4-1.2h-7.4v13h-7.4v-33.2h18.1ZM233.9,62.2c1.7,0,3-.4,3.8-1.1.8-.7,1.3-2,1.3-3.6s-.4-2.8-1.3-3.5c-.8-.7-2.1-1.1-3.8-1.1h-8.1v9.3h8.1Z"/>
    <path class="st1" d="M189.1,75.6c.8,1.3,1.3,2.2,1.5,2.5.9,1.6,1.5,2.4,3.5,2.4h19v-6.2h-15.7c-1.4,0-2.4-.9-3.2-2.2-.8.5-3,2.1-5.1,3.6,0,0,0,0,0,0"/>
    <path class="st1" d="M180.3,49c-1-1.6-2.1-1.9-3.3-1.9h-19v6.2h15.3c1.4,0,2.1.2,2.5.6,1.4-1,3.3-2.3,5.2-3.6-.4-.6-.6-1.1-.8-1.2"/>
    <path class="st1" d="M159.5,60.6h12.7c2.1,0,2.4-.6,3.5-1.3,1.1-.8,15.2-10.5,16.1-11.1.9-.6,1.5-1.1,3.5-1.1h17.8v6.2s-15,0-16.5,0-2.1.6-3.1,1.2c-1,.6-15.4,10.7-16.3,11.2-.9.5-1.5,1-3.8,1h-13.9v-6.2Z"/>
    <path class="st1" d="M158.2,74.2h12.7c2.1,0,2.4-.6,3.5-1.3,1.1-.8,15.2-10.5,16.1-11.1.9-.6,1.5-1.1,3.5-1.1h17.8v6.2s-15,0-16.5,0-2.1.6-3.1,1.2c-1,.6-15.4,10.7-16.3,11.2-.9.5-1.5,1-3.8,1h-13.9v-6.2Z"/>
    <polygon class="st1" points="252.7 47.2 274.9 47.2 274.9 49 254.7 49 254.7 62.2 273.7 62.2 273.7 64 254.7 64 254.7 78.5 275.1 78.5 275.1 80.3 252.7 80.3 252.7 47.2"/>
    <rect class="st1" x="55.4" y="47.2" width="2" height="33"/>
    <polygon class="st1" points="64.4 47.2 66.9 47.2 87.7 77.5 87.8 77.5 87.8 47.2 89.9 47.2 89.9 80.2 87.5 80.2 66.5 49.7 66.4 49.7 66.4 80.2 64.4 80.2 64.4 47.2"/>
    <path class="st1" d="M118.4,56.6c0-1.4-.4-2.6-.9-3.7-.5-1-1.3-1.9-2.2-2.6-.9-.7-2-1.2-3.3-1.6-1.3-.4-2.7-.5-4.2-.5s-1.9.1-3,.3c-1.1.2-2,.6-3,1.1s-1.7,1.3-2.2,2.2c-.6.9-.9,2-.9,3.4s.3,2.4,1,3.2c.6.8,1.5,1.5,2.5,2,1,.5,2.2.9,3.6,1.2,1.4.3,2.7.6,4.1.9,1.4.3,2.8.6,4.1,1,1.3.4,2.5.9,3.6,1.6,1.1.7,1.9,1.5,2.6,2.6.6,1.1,1,2.4,1,4s-.4,3.2-1.1,4.3c-.7,1.2-1.7,2.1-2.8,2.9-1.1.7-2.4,1.3-3.7,1.6-1.4.3-2.7.5-3.9.5-1.9,0-3.8-.2-5.4-.6-1.7-.4-3.2-1.1-4.4-2-1.3-.9-2.3-2.1-3-3.6-.7-1.5-1.1-3.3-1-5.4h2c0,1.8.2,3.3.8,4.6.6,1.2,1.5,2.3,2.6,3.1,1.1.8,2.4,1.4,3.9,1.7,1.5.4,3,.5,4.7.5s2-.1,3.2-.4c1.1-.2,2.2-.7,3.1-1.2.9-.6,1.7-1.4,2.4-2.3.6-1,.9-2.2.9-3.6s-.3-2.5-1-3.4c-.6-.9-1.5-1.6-2.6-2.1-1.1-.5-2.3-1-3.6-1.3-1.3-.3-2.7-.6-4.1-.9-1.4-.3-2.8-.6-4.1-1-1.4-.4-2.6-.9-3.6-1.5-1-.6-1.9-1.4-2.5-2.4-.6-1-1-2.3-1-3.9s.3-2.9,1-4c.7-1.1,1.5-2,2.6-2.7,1.1-.7,2.3-1.2,3.6-1.5,1.3-.3,2.6-.5,3.9-.5s3.3.2,4.8.6c1.5.4,2.8,1,3.9,1.8,1.1.8,2,1.9,2.7,3.2.7,1.3,1.1,2.8,1.2,4.7h-2Z"/>
  </g>
  <g>
    <rect class="st0" x="55.1" y="87.5" width="73.4" height="3.1"/>
    <rect class="st2" x="128.5" y="87.5" width="73.4" height="3.1"/>
    <rect class="st3" x="201.9" y="87.5" width="73.4" height="3.1"/>
  </g>
  <g>
    <path class="st1" d="M70.3,98.5h5v.9h-4v2.5h3.8v.9h-3.8v2.8h4.2v.9h-5.2v-7.9Z"/>
    <path class="st1" d="M76.9,98.5h1.2l4.6,6.6h0v-6.6h.9v7.9h-1.2l-4.6-6.6h0v6.6h-.9v-7.9Z"/>
    <path class="st1" d="M89.3,99.9c-.2-.3-.4-.4-.6-.6-.3-.1-.5-.2-.8-.2s-.4,0-.6,0c-.2,0-.4.1-.5.2-.2.1-.3.2-.4.4s-.1.4-.1.6,0,.3,0,.5c0,.1.1.3.3.4.1.1.3.2.5.3.2,0,.5.2.8.3.3,0,.6.2.9.3.3.1.5.3.8.4s.4.4.5.6c.1.3.2.6.2,1s0,.7-.2,1c-.2.3-.4.5-.6.7-.3.2-.6.3-.9.4s-.7.1-1,.1-.5,0-.7,0c-.2,0-.5-.1-.7-.2-.2,0-.4-.2-.6-.3-.2-.1-.3-.3-.5-.5l.8-.7c.2.3.4.5.7.7s.6.2,1,.2.4,0,.6,0c.2,0,.4-.1.6-.3s.3-.3.4-.4.2-.4.2-.6,0-.4-.1-.6c0-.2-.2-.3-.4-.4s-.4-.2-.6-.3c-.3,0-.6-.2-.9-.3-.3,0-.5-.2-.8-.3-.2-.1-.4-.3-.6-.4-.2-.2-.3-.4-.4-.6-.1-.2-.2-.5-.2-.8s0-.7.2-1c.1-.3.3-.5.6-.7s.5-.3.9-.4c.3,0,.7-.1,1-.1s.9,0,1.2.2c.4.1.7.4,1,.7l-.8.7Z"/>
    <path class="st1" d="M91.8,98.5h5v.9h-4v2.5h3.8v.9h-3.8v2.8h4.2v.9h-5.2v-7.9Z"/>
    <path class="st1" d="M98.4,98.5h1.4l2.7,6.2h0l2.7-6.2h1.4v7.9h-.9v-6.6h0l-2.8,6.6h-.6l-2.8-6.6h0v6.6h-.9v-7.9Z"/>
    <path class="st1" d="M108.5,98.5h2.4c.3,0,.6,0,1,.1.3,0,.6.2.8.3.2.2.4.4.6.6s.2.5.2.9-.1.8-.4,1.1c-.2.3-.6.5-1,.6h0c.3,0,.5.1.7.2.2.1.4.2.6.4.2.2.3.4.4.6s.1.5.1.7c0,.4,0,.8-.3,1.1-.2.3-.4.5-.7.7s-.6.3-1,.4c-.4,0-.7.1-1.1.1h-2.4v-7.9ZM109.5,101.8h1.3c.2,0,.4,0,.7,0,.2,0,.4,0,.6-.2s.3-.2.4-.4.2-.4.2-.7,0-.4-.1-.6c0-.2-.2-.3-.4-.4-.2,0-.3-.2-.5-.2-.2,0-.4,0-.6,0h-1.4v2.5ZM109.5,105.5h1.6c.2,0,.5,0,.7,0,.2,0,.4-.1.6-.2s.3-.2.4-.4c.1-.2.2-.4.2-.6s0-.5-.2-.7c-.1-.2-.2-.3-.4-.4-.2-.1-.4-.2-.6-.2-.2,0-.5,0-.7,0h-1.6v2.8Z"/>
    <path class="st1" d="M115.5,98.5h.9v7h3.6v.9h-4.5v-7.9Z"/>
    <path class="st1" d="M121.1,98.5h5v.9h-4v2.5h3.8v.9h-3.8v2.8h4.2v.9h-5.2v-7.9Z"/>
    <path class="st1" d="M128.2,107.9h-.9l.8-2.7h1l-.9,2.7Z"/>
    <path class="st1" d="M133.9,98.5h2.3c.4,0,.7,0,1,.1.3,0,.6.2.9.4.3.2.5.4.6.7s.2.6.2,1,0,.8-.2,1.1c-.2.3-.4.5-.6.7-.3.2-.5.3-.8.3-.3,0-.6,0-.9,0h-1.6v3.5h-.9v-7.9ZM134.8,102h1.6c.5,0,.8-.1,1.1-.3.3-.2.4-.5.4-1s-.1-.8-.4-1c-.3-.2-.7-.3-1.1-.3h-1.6v2.6Z"/>
    <path class="st1" d="M140.5,98.5h2c.4,0,.8,0,1.1,0,.4,0,.7.1,1,.3s.5.4.7.7c.2.3.3.7.3,1.2s-.2,1-.5,1.4c-.3.4-.8.6-1.4.7l2.2,3.6h-1.1l-2.1-3.5h-1.2v3.5h-.9v-7.9ZM141.5,102h.8c.3,0,.5,0,.8,0,.3,0,.5,0,.8-.1.2,0,.4-.2.6-.4.2-.2.2-.4.2-.8s0-.5-.2-.7-.3-.3-.4-.4-.4-.2-.6-.2c-.2,0-.5,0-.7,0h-1.3v2.6Z"/>
    <path class="st1" d="M151,106.6c-.6,0-1.2-.1-1.7-.3s-.9-.5-1.3-.9c-.4-.4-.7-.8-.9-1.3-.2-.5-.3-1.1-.3-1.7s.1-1.1.3-1.7c.2-.5.5-.9.9-1.3.4-.4.8-.7,1.3-.9s1.1-.3,1.7-.3,1.2.1,1.7.3.9.5,1.3.9c.4.4.7.8.9,1.3.2.5.3,1.1.3,1.7s-.1,1.1-.3,1.7c-.2.5-.5.9-.9,1.3-.4.4-.8.7-1.3.9s-1.1.3-1.7.3ZM151,105.7c.5,0,.9,0,1.3-.3.4-.2.7-.4,1-.7s.5-.6.6-1,.2-.8.2-1.3,0-.9-.2-1.3-.4-.7-.6-1-.6-.5-1-.7c-.4-.2-.8-.3-1.3-.3s-.9,0-1.3.3c-.4.2-.7.4-1,.7s-.5.6-.6,1c-.2.4-.2.8-.2,1.3s0,.9.2,1.3c.2.4.4.7.6,1s.6.5,1,.7c.4.2.8.3,1.3.3Z"/>
    <path class="st1" d="M161.9,99.4h-2.6v7h-.9v-7h-2.6v-.9h6.2v.9Z"/>
    <path class="st1" d="M163,98.5h5v.9h-4v2.5h3.8v.9h-3.8v2.8h4.2v.9h-5.2v-7.9ZM165.7,96.3h1.2l-1.6,1.6h-.8l1.2-1.6Z"/>
    <path class="st1" d="M176.3,105.9c-.5.3-.9.4-1.4.6-.5.1-1,.2-1.5.2s-1.2,0-1.7-.3c-.5-.2-1-.5-1.3-.8-.4-.4-.7-.8-.9-1.3s-.3-1.1-.3-1.7.1-1.2.3-1.7c.2-.5.5-.9.9-1.3.4-.4.8-.6,1.3-.8.5-.2,1.1-.3,1.7-.3s1,0,1.5.2.9.4,1.3.8l-.7.7c-.3-.3-.6-.5-1-.7-.4-.2-.8-.2-1.2-.2s-.9,0-1.3.2c-.4.2-.7.4-1,.7-.3.3-.5.6-.7,1-.2.4-.2.8-.2,1.3s0,.9.2,1.3c.2.4.4.7.7,1,.3.3.6.5,1,.7.4.2.8.2,1.3.2s.7,0,1-.1c.3,0,.7-.2,1-.3v-2.4h-1.8v-.9h2.8v3.9Z"/>
    <path class="st1" d="M178.3,98.5h5v.9h-4v2.5h3.8v.9h-3.8v2.8h4.2v.9h-5.2v-7.9Z"/>
    <path class="st1" d="M184.9,98.5h2c.4,0,.8,0,1.1,0,.4,0,.7.1,1,.3.3.1.5.4.7.7s.3.7.3,1.2-.2,1-.5,1.4c-.3.4-.8.6-1.4.7l2.2,3.6h-1.1l-2.1-3.5h-1.2v3.5h-.9v-7.9ZM185.8,102h.8c.3,0,.5,0,.8,0,.3,0,.5,0,.8-.1.2,0,.4-.2.6-.4.2-.2.2-.4.2-.8s0-.5-.2-.7c-.1-.2-.3-.3-.4-.4-.2,0-.4-.2-.6-.2-.2,0-.5,0-.7,0h-1.3v2.6Z"/>
    <path class="st1" d="M197.4,98.5h.9l3.4,7.9h-1.1l-.8-1.9h-3.9l-.8,1.9h-1.1l3.5-7.9ZM197.8,99.7h0l-1.6,3.9h3.2l-1.6-3.9Z"/>
    <path class="st1" d="M208.6,103.4c0,.4,0,.8-.2,1.2-.1.4-.3.7-.5,1-.2.3-.5.5-.9.7-.4.2-.8.3-1.4.3s-1,0-1.4-.3c-.4-.2-.7-.4-.9-.7-.2-.3-.4-.6-.5-1-.1-.4-.2-.8-.2-1.2v-4.9h.9v4.7c0,.3,0,.6.1.9,0,.3.2.6.3.8.2.2.4.4.6.6.3.1.6.2,1,.2s.7,0,1-.2c.3-.1.5-.3.6-.6.2-.2.3-.5.3-.8,0-.3.1-.6.1-.9v-4.7h.9v4.9Z"/>
    <path class="st1" d="M215.8,99.4h-2.6v7h-.9v-7h-2.6v-.9h6.2v.9Z"/>
    <path class="st1" d="M216.9,98.5h2c.4,0,.8,0,1.1,0,.4,0,.7.1,1,.3.3.1.5.4.7.7s.3.7.3,1.2-.2,1-.5,1.4c-.3.4-.8.6-1.4.7l2.2,3.6h-1.1l-2.1-3.5h-1.2v3.5h-.9v-7.9ZM217.8,102h.8c.3,0,.5,0,.8,0,.3,0,.5,0,.8-.1.2,0,.4-.2.6-.4.2-.2.2-.4.2-.8s0-.5-.2-.7c-.1-.2-.3-.3-.4-.4-.2,0-.4-.2-.6-.2-.2,0-.5,0-.7,0h-1.3v2.6Z"/>
    <path class="st1" d="M223.7,98.5h5v.9h-4v2.5h3.8v.9h-3.8v2.8h4.2v.9h-5.2v-7.9Z"/>
    <path class="st1" d="M230.3,98.5h1.4l2.7,6.2h0l2.7-6.2h1.4v7.9h-.9v-6.6h0l-2.8,6.6h-.6l-2.8-6.6h0v6.6h-.9v-7.9Z"/>
    <path class="st1" d="M240.4,98.5h5v.9h-4v2.5h3.8v.9h-3.8v2.8h4.2v.9h-5.2v-7.9Z"/>
    <path class="st1" d="M247,98.5h1.2l4.6,6.6h0v-6.6h.9v7.9h-1.2l-4.6-6.6h0v6.6h-.9v-7.9Z"/>
    <path class="st1" d="M261,99.4h-2.6v7h-.9v-7h-2.6v-.9h6.2v.9Z"/>
  </g>
</svg>